<?xml version="1.0" encoding="iso-8859-1"?>
<!-- Generator: Adobe Illustrator 19.0.0, SVG Export Plug-In . SVG Version: 6.00 Build 0)  -->
<svg xmlns="http://www.w3.org/2000/svg" xmlns:xlink="http://www.w3.org/1999/xlink" version="1.1" id="Capa_1" x="0px" y="0px" viewBox="0 0 512 512" style="enable-background:new 0 0 512 512;" xml:space="preserve" width="512px" height="512px">
<g>
	<g>
		<path d="M165,90.992c-8.276,0-15,6.724-15,15s6.724,15,15,15s15-6.724,15-15S173.276,90.992,165,90.992z" fill="#eb5a46"/>
	</g>
</g>
<g>
	<g>
		<path d="M259.863,150.977c6.656-14.053,9.915-28.951,10.111-43.691C270.732,50.317,227.009-0.008,165,0.008    C106.738,0.025,60,48.431,60,105.992c0,15.703,3.472,31.011,10.137,44.985C26.543,181.71,0,233.173,0,286.992    c0,47.724,20.654,93.091,56.689,124.468c7.793,6.797,18.149,10.532,29.15,10.532H150v-30c0-24.307,14.584-45.17,35.407-54.593    c9.423-20.823,30.286-35.407,54.593-35.407c33.091,0,60,26.909,60,60h11.9c11.827-23.068,18.1-48.525,18.1-75    C330,233.174,303.457,181.695,259.863,150.977z M165,150.992c-24.814,0-45-20.186-45-45c0-24.814,20.186-45,45-45    c24.814,0,45,20.186,45,45C210,130.806,189.814,150.992,165,150.992z" fill="#eb5a46"/>
	</g>
</g>
<g>
	<g>
		<path d="M240,331.992c-16.569,0-30,13.431-30,30c-16.569,0-30,13.431-30,30v60c0,16.569,13.431,30,30,30c0,16.569,13.431,30,30,30    c16.569,0,30-13.431,30-30v-120C270,345.423,256.569,331.992,240,331.992z" fill="#eb5a46"/>
	</g>
</g>
<g>
	<g>
		<path d="M482,361.992c0-16.569-14.431-30-31-30c-16.569,0-30,13.431-30,30v120c0,16.569,13.431,30,30,30c16.569,0,31-13.431,31-30    c16.569,0,30-13.431,30-30v-60C512,375.423,498.569,361.992,482,361.992z" fill="#eb5a46"/>
	</g>
</g>
<g>
	<g>
		<rect x="300" y="391.99" width="91" height="60" fill="#eb5a46"/>
	</g>
</g>
<g>
</g>
<g>
</g>
<g>
</g>
<g>
</g>
<g>
</g>
<g>
</g>
<g>
</g>
<g>
</g>
<g>
</g>
<g>
</g>
<g>
</g>
<g>
</g>
<g>
</g>
<g>
</g>
<g>
</g>
</svg>
