<?xml version="1.0" encoding="iso-8859-1"?>
<!-- Generator: Adobe Illustrator 19.0.0, SVG Export Plug-In . SVG Version: 6.00 Build 0)  -->
<svg xmlns="http://www.w3.org/2000/svg" xmlns:xlink="http://www.w3.org/1999/xlink" version="1.1" id="Capa_1" x="0px" y="0px" viewBox="0 0 512 512" style="enable-background:new 0 0 512 512;" xml:space="preserve" width="512px" height="512px">
<g>
	<g>
		<path d="M480.534,131.405v257.551C498.624,384.164,512,367.658,512,348.081V172.279C512,152.702,498.624,136.196,480.534,131.405z    " fill="#eb5a46"/>
	</g>
</g>
<g>
	<g>
		<path d="M406.746,97.301h-9.909c-23.315,0-42.284,18.969-42.284,42.283v241.191c0,23.315,18.969,42.283,42.284,42.283h9.909    c23.315,0,42.284-18.968,42.284-42.283V139.584C449.029,116.269,430.061,97.301,406.746,97.301z" fill="#eb5a46"/>
	</g>
</g>
<g>
	<g>
		<rect x="188.952" y="207.834" width="134.103" height="103.176" fill="#eb5a46"/>
	</g>
</g>
<g>
	<g>
		<path d="M0,163.92v175.801c0,19.577,13.376,36.084,31.466,40.875V123.044C13.376,127.836,0,144.343,0,163.92z" fill="#eb5a46"/>
	</g>
</g>
<g>
	<g>
		<path d="M115.164,88.942h-9.909c-23.315,0-42.283,18.969-42.283,42.283v241.19c0,23.315,18.969,42.283,42.283,42.283h9.909    c23.315,0,42.283-18.969,42.283-42.283v-241.19C157.446,107.91,138.478,88.942,115.164,88.942z" fill="#eb5a46"/>
	</g>
</g>
<g>
</g>
<g>
</g>
<g>
</g>
<g>
</g>
<g>
</g>
<g>
</g>
<g>
</g>
<g>
</g>
<g>
</g>
<g>
</g>
<g>
</g>
<g>
</g>
<g>
</g>
<g>
</g>
<g>
</g>
</svg>
