<?xml version="1.0" encoding="iso-8859-1"?>
<!-- Generator: Adobe Illustrator 19.0.0, SVG Export Plug-In . SVG Version: 6.00 Build 0)  -->
<svg xmlns="http://www.w3.org/2000/svg" xmlns:xlink="http://www.w3.org/1999/xlink" version="1.1" id="Layer_1" x="0px" y="0px" viewBox="0 0 512 512" style="enable-background:new 0 0 512 512;" xml:space="preserve" width="512px" height="512px">
<g>
	<g>
		<path d="M316.041,0c-49.416,0-94.503,26.334-118.987,68.276c-76.645,0.416-138.871,62.888-138.871,139.627    c0,12.853,10.42,23.273,23.273,23.273h232.727c12.853,0,23.273-10.42,23.273-23.273c0-59.473-37.378-110.372-89.87-130.462    c17.031-19.312,41.789-30.895,68.456-30.895c50.306,0,91.232,40.937,91.232,91.255v350.926c0,12.853,10.42,23.273,23.273,23.273    c12.853,0,23.273-10.42,23.273-23.273V137.801C453.818,61.817,392.012,0,316.041,0z" fill="#eb5a46"/>
	</g>
</g>
<g>
	<g>
		<path d="M104.727,401.842c-12.853,0-23.273,10.42-23.273,23.273v31.03c0,12.853,10.42,23.273,23.273,23.273    c12.853,0,23.273-10.42,23.273-23.273v-31.03C128,412.262,117.58,401.842,104.727,401.842z" fill="#eb5a46"/>
	</g>
</g>
<g>
	<g>
		<path d="M197.818,401.842c-12.853,0-23.273,10.42-23.273,23.273v31.03c0,12.853,10.42,23.273,23.273,23.273    c12.853,0,23.273-10.42,23.273-23.273v-31.03C221.091,412.262,210.671,401.842,197.818,401.842z" fill="#eb5a46"/>
	</g>
</g>
<g>
	<g>
		<path d="M290.909,401.842c-12.853,0-23.273,10.42-23.273,23.273v31.03c0,12.853,10.42,23.273,23.273,23.273    c12.853,0,23.273-10.42,23.273-23.273v-31.03C314.182,412.262,303.762,401.842,290.909,401.842z" fill="#eb5a46"/>
	</g>
</g>
<g>
	<g>
		<path d="M104.727,277.721c-12.853,0-23.273,10.42-23.273,23.273v31.03c0,12.853,10.42,23.273,23.273,23.273    c12.853,0,23.273-10.42,23.273-23.273v-31.03C128,288.141,117.58,277.721,104.727,277.721z" fill="#eb5a46"/>
	</g>
</g>
<g>
	<g>
		<path d="M197.818,277.721c-12.853,0-23.273,10.42-23.273,23.273v31.03c0,12.853,10.42,23.273,23.273,23.273    c12.853,0,23.273-10.42,23.273-23.273v-31.03C221.091,288.141,210.671,277.721,197.818,277.721z" fill="#eb5a46"/>
	</g>
</g>
<g>
	<g>
		<path d="M290.909,277.721c-12.853,0-23.273,10.42-23.273,23.273v31.03c0,12.853,10.42,23.273,23.273,23.273    c12.853,0,23.273-10.42,23.273-23.273v-31.03C314.182,288.141,303.762,277.721,290.909,277.721z" fill="#eb5a46"/>
	</g>
</g>
<g>
</g>
<g>
</g>
<g>
</g>
<g>
</g>
<g>
</g>
<g>
</g>
<g>
</g>
<g>
</g>
<g>
</g>
<g>
</g>
<g>
</g>
<g>
</g>
<g>
</g>
<g>
</g>
<g>
</g>
</svg>
