<?xml version="1.0"?>
<svg xmlns="http://www.w3.org/2000/svg" height="512px" viewBox="0 0 512 512.00026" width="512px"><path d="m299.6875 240.613281c8.996094 25.21875 13.636719 51.789063 13.714844 78.5625 10.441406 1.097657 20.972656 1.097657 31.414062 0 .089844-26.769531 4.726563-53.335937 13.714844-78.554687-18.746094 8.320312-40.136719 8.320312-58.878906 0zm0 0" fill="#eb5a46"/><path d="m462.980469 114.441406c-4.207031-9.527344-9.417969-18.578125-15.542969-27-23.242188 13.355469-48.601562 22.632813-74.972656 27.429688 16.464844 12.074218 27.136718 30.480468 29.429687 50.769531 17.285157-20.433594 37.945313-37.753906 61.085938-51.199219zm0 0" fill="#eb5a46"/><path d="m155.777344 182.855469c.671875 13.140625 2.855468 26.15625 6.511718 38.796875 10.144532 1.652344 20.101563 4.320312 29.714844 7.960937v-40.539062c-.445312-3.699219-3.683594-6.421875-7.40625-6.21875zm0 0" fill="#eb5a46"/><path d="m329.144531 118.855469c-30.296875 0-54.855469 24.5625-54.855469 54.859375s24.558594 54.855468 54.855469 54.855468 54.859375-24.558593 54.859375-54.855468c-.03125-30.285156-24.574218-54.828125-54.859375-54.859375zm0 91.429687c-20.195312 0-36.570312-16.371094-36.570312-36.570312 0-20.199219 16.375-36.570313 36.570312-36.570313 20.199219 0 36.574219 16.371094 36.574219 36.570313 0 20.199218-16.375 36.570312-36.574219 36.570312zm0 0" fill="#eb5a46"/><path d="m228.574219 249.445312v-75.730468c0-15.148438-12.28125-27.429688-27.429688-27.429688h-62.460937c-.128906 0-.25 0-.375 0h-65.164063c-15.148437 0-27.425781 12.28125-27.425781 27.429688v75.730468c5.816406-4.308593 11.925781-8.203124 18.285156-11.65625v-48.714843c.351563-13.847657 11.839844-24.804688 25.691406-24.503907h94.902344c13.851563-.300781 25.335938 10.65625 25.691406 24.503907v48.714843c6.359376 3.453126 12.46875 7.347657 18.285157 11.65625zm0 0" fill="#eb5a46"/><path d="m82.289062 189.074219v40.539062c17.515626-6.695312 36.105469-10.148437 54.855469-10.183593 1.902344 0 3.742188.21875 5.625.28125-2.964843-12.082032-4.730469-24.425782-5.265625-36.855469h-47.808594c-3.722656-.203125-6.964843 2.519531-7.40625 6.21875zm0 0" fill="#eb5a46"/><path d="m228.261719 32.449219c30.171875 19.105469 65.171875 29.195312 100.882812 29.082031 35.714844.117188 70.714844-9.972656 100.882813-29.082031-60.296875-43.265625-141.464844-43.265625-201.765625 0zm0 0" fill="#eb5a46"/><path d="m347.429688 173.714844c0 10.097656-8.183594 18.285156-18.285157 18.285156-10.097656 0-18.285156-8.1875-18.285156-18.285156s8.1875-18.285156 18.285156-18.285156c10.101563 0 18.285157 8.1875 18.285157 18.285156zm0 0" fill="#eb5a46"/><path d="m235.625 144.027344.109375-.117188c7.367187 6.796875 14.296875 14.0625 20.734375 21.75 2.285156-20.304687 12.960938-38.726562 29.441406-50.808594-26.375-4.796874-51.730468-14.070312-74.972656-27.425781-6.144531 8.421875-11.367188 17.472657-15.589844 27.007813 10.476563 6.050781 20.464844 12.914062 29.871094 20.523437 3.90625 2.480469 7.414062 5.539063 10.40625 9.070313zm0 0" fill="#eb5a46"/><path d="m137.144531 512c48.410157.027344 93.242188-25.484375 117.949219-67.113281 24.707031-41.628907 25.621094-93.203125 2.410156-135.683594 0-.09375-.109375-.15625-.148437-.246094-4.09375-7.460937-8.875-14.523437-14.28125-21.09375l-.183594-.238281c-2.273437-2.742188-4.726563-5.355469-7.203125-7.925781-.757812-.785157-1.488281-1.601563-2.265625-2.367188-53.316406-52.824219-139.234375-52.824219-192.550781 0-.777344.765625-1.507813 1.582031-2.265625 2.367188-2.480469 2.570312-4.929688 5.175781-7.207031 7.925781l-.183594.238281c-33.695313 40.960938-40.734375 97.6875-18.070313 145.640625 22.664063 47.957032 70.960938 78.527344 124 78.496094zm0-228.570312c50.496094 0 91.429688 40.933593 91.429688 91.425781 0 50.496093-40.933594 91.429687-91.429688 91.429687-50.492187 0-91.425781-40.933594-91.425781-91.429687.054688-50.46875 40.957031-91.371094 91.425781-91.425781zm0 0" fill="#eb5a46"/><path d="m137.144531 448c40.398438 0 73.144531-32.746094 73.144531-73.144531 0-40.394531-32.746093-73.140625-73.144531-73.140625-40.394531 0-73.140625 32.746094-73.140625 73.140625.042969 40.378906 32.765625 73.097656 73.140625 73.144531zm0-82.285156c0-15.148438 12.28125-27.429688 27.429688-27.429688 15.148437 0 27.429687 12.28125 27.429687 27.429688v18.285156c0 15.148438-12.28125 27.429688-27.429687 27.429688-15.148438 0-27.429688-12.28125-27.429688-27.429688zm-43.035156-2.679688c-3.566406-3.570312-3.566406-9.355468 0-12.925781l9.144531-9.144531c2.613282-2.613282 6.546875-3.394532 9.960938-1.980469 3.417968 1.414063 5.644531 4.746094 5.644531 8.445313v45.714843c5.050781 0 9.144531 4.09375 9.144531 9.140625 0 5.050782-4.09375 9.144532-9.144531 9.144532h-18.285156c-5.050781 0-9.144531-4.09375-9.144531-9.144532 0-5.046875 4.09375-9.140625 9.144531-9.140625v-27.429687c-2.425781 0-4.75-.964844-6.464844-2.679688zm0 0" fill="#eb5a46"/><path d="m510.339844 132.042969 1.304687-.53125c-7.960937-36.714844-27.328125-69.96875-55.332031-95.011719-.984375.757812-1.828125 1.371094-2.796875 2.039062-.136719.191407-.171875.417969-.328125.601563-1.152344 1.332031-2.679688 2.289063-4.378906 2.742187-34.945313 24.835938-76.792969 38.101563-119.664063 37.933594-42.851562.144532-84.675781-13.117187-119.613281-37.933594-1.71875-.453124-3.257812-1.40625-4.425781-2.742187-.128907-.210937-.25-.425781-.355469-.648437-.84375-.613282-1.683594-1.1875-2.507812-1.828126-27.199219 24.144532-46.398438 56.007813-55.039063 91.335938h34.695313c-.820313-.449219-1.589844-.996094-2.410157-1.433594-4.070312-2.164062-5.894531-7.023437-4.253906-11.328125 6.269531-16.519531 15.164063-31.914062 26.339844-45.597656 2.910156-3.542969 7.992187-4.382813 11.886719-1.964844 34.714843 21.59375 74.800781 32.992188 115.683593 32.894531 40.875.089844 80.953125-11.316406 115.660157-32.914062 3.894531-2.414062 8.976562-1.574219 11.882812 1.96875 11.191406 13.671875 20.097656 29.0625 26.378906 45.574219 1.640625 4.3125-.1875 9.167969-4.261718 11.328125-35.570313 18.964844-65.15625 47.457031-85.449219 82.285156l-.820313 1.484375c-20.441406 35.332031-30.578125 75.679687-29.257812 116.476563.148437 4.574218-3.105469 8.554687-7.617188 9.316406-17.535156 2.855468-35.417968 2.855468-52.957031 0-4.511719-.761719-7.765625-4.742188-7.613281-9.316406 1.28125-40.808594-8.890625-81.164063-29.367188-116.488282l-.476562-.867187c-5.492188-9.347657-11.636719-18.296875-18.386719-26.78125v82.113281c23.902344 23.660156 39.355469 54.53125 43.96875 87.84375 31.234375 6.363281 63.558594 4.90625 94.089844-4.25l-.246094-1.664062c-6.164063-44.523438 2.945313-89.820313 25.84375-128.496094 21.890625-37.507813 55.25-66.992188 95.160156-84.113282 1.308594-.667968 2.972657-1.34375 4.664063-2.027343zm0 0" fill="#eb5a46"/><path d="m164.574219 393.144531c5.050781 0 9.144531-4.09375 9.144531-9.144531v-18.285156c0-5.050782-4.09375-9.144532-9.144531-9.144532s-9.144531 4.09375-9.144531 9.144532v18.285156c0 5.050781 4.09375 9.144531 9.144531 9.144531zm0 0" fill="#eb5a46"/><path d="m501.855469 156.125c-31.507813 16.039062-57.746094 40.792969-75.59375 71.3125-18.570313 31.414062-27.160157 67.730469-24.632813 104.136719 61.511719-28.527344 100.96875-90.058594 101.230469-157.859375-.03125-5.878906-.367187-11.75-1.003906-17.589844zm0 0" fill="#eb5a46"/></svg>
