<?xml version="1.0" encoding="utf-8"?>
<!-- Generator: Adobe Illustrator 16.0.0, SVG Export Plug-In . SVG Version: 6.00 Build 0)  -->
<!DOCTYPE svg PUBLIC "-//W3C//DTD SVG 1.1//EN" "http://www.w3.org/Graphics/SVG/1.1/DTD/svg11.dtd">
<svg version="1.1" id="Capa_1" xmlns="http://www.w3.org/2000/svg" xmlns:xlink="http://www.w3.org/1999/xlink" x="0px" y="0px"
	 width="512px" height="512px" viewBox="0 0 512 512" enable-background="new 0 0 512 512" xml:space="preserve">
<g opacity="0.8">
	<path fill="#FF6600" d="M256,25.6c127.045,0,230.4,103.355,230.4,230.4c0,127.044-103.355,230.4-230.4,230.4
		C128.956,486.4,25.6,383.044,25.6,256C25.6,128.956,128.956,25.6,256,25.6 M256,0C114.628,0,0,114.62,0,256
		c0,141.38,114.628,256,256,256c141.372,0,256-114.62,256-256C512,114.62,397.372,0,256,0L256,0z"/>
	<path fill="#FF6600" d="M358.289,228.224l-136.312-89.711c-23.526-15.479-42.777-5.095-42.777,23.065v188.8
		c0,28.16,19.276,38.579,42.846,23.159l136.184-89.122C381.79,268.979,381.815,243.704,358.289,228.224z M340.121,265.592
		l-121.045,79.215c-7.851,5.146-14.276,1.672-14.276-7.715V174.856c0-9.387,6.417-12.843,14.259-7.68l121.088,79.684
		C347.989,252.015,347.98,260.445,340.121,265.592z"/>
</g>
</svg>
