<?xml version="1.0" encoding="iso-8859-1"?>
<!-- Generator: Adobe Illustrator 19.0.0, SVG Export Plug-In . SVG Version: 6.00 Build 0)  -->
<svg version="1.1" id="Layer_1" xmlns="http://www.w3.org/2000/svg" xmlns:xlink="http://www.w3.org/1999/xlink" x="0px" y="0px"
	 viewBox="0 0 505 505" style="enable-background:new 0 0 505 505;" xml:space="preserve">
<circle style="fill:#FD8469;" cx="252.5" cy="252.5" r="252.5"/>
<polygon style="fill:#E6E9EE;" points="101.2,256 86,244.3 185.9,114.8 283.2,208.9 375.4,135.2 387.4,150.2 282,234.5 188,143.6 
	"/>
<circle style="fill:#FFFFFF;" cx="381.4" cy="142.7" r="35.8"/>
<circle style="fill:#4CDBC4;" cx="381.4" cy="142.7" r="20.8"/>
<circle style="fill:#FFFFFF;" cx="282.6" cy="218.2" r="35.8"/>
<circle style="fill:#2C9984;" cx="282.6" cy="218.2" r="20.8"/>
<circle style="fill:#FFFFFF;" cx="186.9" cy="129.2" r="35.8"/>
<circle style="fill:#FFD05B;" cx="186.9" cy="129.2" r="20.8"/>
<circle style="fill:#FFFFFF;" cx="91.3" cy="250.2" r="35.8"/>
<circle style="fill:#54C0EB;" cx="91.3" cy="250.2" r="20.8"/>
<rect x="246.57" y="364.598" transform="matrix(-0.7071 -0.7071 0.7071 -0.7071 182.8078 819.2173)" style="fill:#2B3B4E;" width="29" height="14.3"/>
<circle style="fill:#324A5E;" cx="203.9" cy="315.1" r="74.3"/>
<circle style="fill:#84DBFF;" cx="203.9" cy="315.1" r="58.7"/>
<path style="fill:#FFD05B;" d="M278.4,367.4L256.8,389c-0.5,0.5-0.5,1.4,0,2l60.1,60.1c0.5,0.5,1.4,0.5,2,0l21.6-21.6
	c0.5-0.5,0.5-1.4,0-2l-60.1-60.1C279.8,366.8,278.9,366.8,278.4,367.4z"/>
<g>
</g>
<g>
</g>
<g>
</g>
<g>
</g>
<g>
</g>
<g>
</g>
<g>
</g>
<g>
</g>
<g>
</g>
<g>
</g>
<g>
</g>
<g>
</g>
<g>
</g>
<g>
</g>
<g>
</g>
</svg>
