<svg enable-background="new 0 0 140 140" height="512" viewBox="0 0 140 140" width="512" xmlns="http://www.w3.org/2000/svg"><circle cx="70" cy="70" fill="#45b39c" r="64"/><path d="m85.4714279 29.7949562h-37.1400108c-2.4699707 0-4.4599609 2-4.4599609 4.4599609v.3900146c-2.710022.0699463-4.8900146 2.2800293-4.8900146 5.0100098v63.4100304c0 1.1099854.3699951 2.1199951.9799805 2.9499512l-.0499878.0400391.460022.4599609c.0599976.0600586.1199951.1199951.1799927.1800537l27.2493858 27.2493896c.7315063.0247803 1.4616089.0556641 2.1991577.0556641 32.6936035 0 59.6425247-24.5203857 63.5061722-56.1704102l-38.3647539-38.3647422c-3.6199951-3.6999512-7.2699585-7.3798828-9.6699829-9.6699219z" opacity=".1"/><path d="m98.097168 52.3694191c-4.9237671-5.1083984-13.0184937-13.4482422-17.34729-17.5891113-.1043701-.0998535-.2388916-.151123-.3833008-.151123h-36.3604737c-2.7735596 0-5.0220337 2.2484131-5.0220337 5.0219727v63.4123497c0 2.7734375 2.2484131 5.0219727 5.0219116 5.0219727h49.2220459c2.7736206 0 5.0220337-2.2485352 5.0220337-5.0219727v-50.3095666c0-.1448975-.0523071-.2801514-.152893-.3845215z" fill="#d5d6db"/><path d="m85.4742508 29.7977772h-37.1454125c-2.4643936 0-4.4621849 1.9977932-4.4621849 4.4621105v64.5322037c0 2.464386 1.9977913 4.4621048 4.4621849 4.4621048h50.3417015c2.4643936 0 4.4621048-1.9977188 4.4621048-4.4621048v-51.0953064c-4.9673995-5.1549263-13.3270645-13.7707405-17.6583938-17.8990078z" fill="#ebf0f3"/><g fill="#d5d6db"><path d="m85.4742508 29.7977772v13.4368992c0 2.4643173 1.9977188 4.4621086 4.4621124 4.4621086h13.1962814c-4.3313293-4.1282654-12.6909866-12.7440796-17.6583938-17.8990078z"/><path d="m62.634319 69.526329h8.47249v2.872979h-8.47249z"/><path d="m73.258232 69.526329h12.871135v2.872979h-12.871135z"/><path d="m88.447159 69.526329h6.940088v2.872979h-6.940088z"/><path d="m62.634319 75.289131h11.176523v2.872979h-11.176523z"/><path d="m76.37056 75.289131h19.016686v2.872979h-19.016686z"/><path d="m62.634319 80.897667h8.47249v2.872979h-8.47249z"/><path d="m73.258232 80.897667h12.871135v2.872979h-12.871135z"/><path d="m88.447159 80.897667h6.940088v2.872979h-6.940088z"/><path d="m62.634319 86.660461h11.176523v2.872979h-11.176523z"/><path d="m76.37056 86.660461h4.75981v2.872979h-4.75981z"/><path d="m62.634319 92.268997h8.47249v2.872979h-8.47249z"/><path d="m73.258232 92.268997h8.434131v2.872979h-8.434131z"/></g><path d="m68.9920959 65.8191681-5.4638671-15.5634766-4.3447266 10.4873047h-8.3046875v-1h7.6367187l5.0908204-12.2861328 5.2724609 15.0185547 1.4287109-5.1728516h5.7890625l3.725586-5.8339843 2.9179687 8.1679687 2.4697266-3.6347656h8.290039v1h-7.7607421l-3.2783204 4.8242187-2.8945312-8.0996093-2.9208984 4.5761718h-5.5761719z" fill="#d15241"/><path d="m50.878628 69.526329h8.635779v8.635779h-8.635779z" fill="#27a2db"/><path d="m50.878628 86.660461h8.635779v8.635779h-8.635779z" fill="#e56353"/><path d="m54.9565773 92.66922-1.6162109-1.616211.7070312-.7070312.9091797.9091797 1.9003906-1.9003907.7070313.7070313z" fill="#d5d6db"/></svg>